PathFileType	4	(X/Y/Z)	S240501-1155_P07_T01_0-394.trc
DataRate	CameraRate	NumFrames	NumMarkers	Units	OrigDataRate	OrigDataStartFrame	OrigNumFrames
60	60	14	13	m	60	295	394
Frame#	Time	Nose			LEye			LEar			LShoulder			LElbow			LWrist			LHip			REye			REar			RShoulder			RElbow			RWrist			RHip		
		X1	Y1	Z1	X2	Y2	Z2	X3	Y3	Z3	X4	Y4	Z4	X5	Y5	Z5	X6	Y6	Z6	X7	Y7	Z7	X8	Y8	Z8	X9	Y9	Z9	X10	Y10	Z10	X11	Y11	Z11	X12	Y12	Z12	X13	Y13	Z13
296	4.933333333333334	-0.05632844451219356	1.668557433216561	0.17068776205008318	-0.08188145585877094	1.6333325291782672	0.19227557844278712	-0.05444958778518023	1.5813227482671386	0.28899315511512075	0.11074677500948199	1.5080094908151676	0.2795534331147087	0.30042098661415567	1.4766159727813473	0.13621486247928824	0.13338348613452766	1.6019483665062002	0.04664512834736958	0.5143028425966618	1.5876883288683807	0.22661350962518043	-0.08556001005455385	1.6982068430810566	0.19181584112711123	-0.06765422344068335	1.750954102397927	0.2887806162720761	0.10196396307103159	1.8325924399416065	0.3185947890079337	0.32902946435183916	1.9272485325163504	0.2514841241329784	0.3243506132358006	1.9003495508206898	0.04229640188398564	0.525097452992755	1.8136598819484453	0.18274586208914836
297	4.95	-0.055735469641873675	1.6680080781526718	0.17106756278796673	-0.08166259968117037	1.635225736295459	0.19093105052262763	-0.05386148939872708	1.5807033597542677	0.28907589461116184	0.10813000358023302	1.5078956681487414	0.2796243916275243	0.3002866212516344	1.4776708025419576	0.1357731494988711	0.13561427133429377	1.6025721824282129	0.03874327484783424	0.5153041298048722	1.5888957604133	0.22638986494306254	-0.08676929339099305	1.6975574152921973	0.19202502906294808	-0.06721177787363958	1.750045959551701	0.28937561690106	0.1038321395501001	1.8360553847009249	0.31984774379380265	0.3294412228134045	1.926516834010015	0.25273527473500296	0.32182176936735873	1.9024464004215815	0.04093000397749777	0.5292020925373349	1.8165497642278847	0.1807264728486635
298	4.966666666666667	-0.0559416459656614	1.6685274434396746	0.1714422721592823	-0.08189617448142625	1.6358075472459819	0.19117702347931714	-0.053988589214009966	1.581458627658211	0.2897769082567649	0.10879147572084628	1.506915211454026	0.275447263198092	0.302011707202714	1.4767634698137329	0.13130033428023452	0.13965613329001797	1.6045589120015824	0.02526682295477051	0.5112762661833853	1.5911447285647864	0.22453484601770904	-0.08693169058933338	1.6979747208559461	0.19238467172142365	-0.06722911202415577	1.7499834316944816	0.29001025973110967	0.10221658571598922	1.836141129502575	0.3217462730440664	0.32866280643997714	1.926338509858862	0.2536872158524374	0.32113531270342677	1.9025726229590707	0.04136212292855462	0.5262055669713717	1.820497445697171	0.1778182069371526
299	4.983333333333333	-0.05607026841963406	1.6708795609006137	0.17193610215353247	-0.08220731281283891	1.6379731768630001	0.19063342621082485	-0.054123836998429216	1.5805607506387667	0.28877223191211615	0.10908609388973238	1.505886049917281	0.2749452735243425	0.3040253432110112	1.477297027534885	0.1295969792089475	0.14312203397930182	1.599443282145958	0.02152731949838228	0.5121630831698608	1.5906733314303363	0.22389420619131542	-0.08573097147941745	1.7007478481544067	0.1913553344770227	-0.06800664359901927	1.7475279644648347	0.2915890371462912	0.10132168424731905	1.8336064843547621	0.3241563086749116	0.3293899318137167	1.926803516267011	0.2534253298343364	0.32251099258850446	1.900773071310068	0.04207545738049195	0.5315910257854438	1.819410172299022	0.1827076944192814
300	5.0	-0.056467642584568864	1.6709563810420218	0.17260868412407	-0.08239696288175419	1.6384033479784867	0.1939909324363409	-0.05444622261759201	1.5807701141963237	0.2901478401544672	0.10846900662913077	1.506144510661215	0.2750515087087367	0.3015443523510549	1.4782735880472382	0.12910814518557542	0.14697910970320538	1.5972663672134786	0.012380327219313893	0.5124264562898612	1.5876087766319227	0.22725889051491843	-0.08744579226698186	1.7008123969472355	0.19486957526828677	-0.06747477372897198	1.7499781463082709	0.29328484589520165	0.10399646790464559	1.8334509999039958	0.3237190601706076	0.32855822282950914	1.9261353030750772	0.25329816881450584	0.32151193674545253	1.9005673673987817	0.04233950210750186	0.5268643707316554	1.8155245603361985	0.17704611746475274
301	5.016666666666667	-0.05739520595014751	1.6715694067253877	0.17273182532105888	-0.08190728461263133	1.6392743804335361	0.1937969445726806	-0.05401247009004038	1.581688147041636	0.289290111670824	0.11022208073853017	1.5047925750522124	0.27345790016496035	0.30309166053825976	1.4786724884447828	0.1296797669317876	0.1525737743474941	1.601849699542311	0.006311163324469925	0.5131044849233419	1.5899791413170743	0.22458960924095	-0.08716307899973366	1.700983082629609	0.19135592966052348	-0.06816282820770234	1.7505751772109672	0.29314644994278666	0.10224832259080187	1.8309156585710344	0.3221424706110141	0.33033858131136035	1.9259282660918378	0.25406835730754707	0.32289170606595313	1.904582079784065	0.04345129013519099	0.523680256836185	1.8175892399409874	0.17847386972122306
302	5.033333333333333	-0.056314329759743	1.672417441683078	0.1735754292576183	-0.08237560076429752	1.6396922953135307	0.1921974957878644	-0.054462850885451074	1.5820578815265272	0.28795195097147824	0.11001544657795753	1.5068642912902812	0.2766803288472418	0.30114765378736125	1.4754094172581078	0.1295819608223947	0.15638392012552363	1.5990956315647171	-0.0034034340143444313	0.5111158790397213	1.5906989147830737	0.22200163951200896	-0.08747416310008281	1.701991849014535	0.19294207320554685	-0.06806373775523791	1.74848725224533	0.29376942506889464	0.10489024363244265	1.834488586844266	0.319340115678115	0.33005734957144905	1.9273239834368685	0.2565120647055262	0.32147775868450523	1.9036943032726068	0.045284783181360706	0.5217030873812728	1.8187400495942978	0.17533634005181645
303	5.05	-0.056178723844434876	1.6708772823440479	0.1697356483208724	-0.08209075209188768	1.640227021730162	0.19324132146366213	-0.05612810303645852	1.583174381189477	0.28594647929963607	0.11078180557556506	1.5036221257873854	0.2779080552422625	0.302851602466817	1.4779183630101973	0.12722393549797906	0.16694062897454123	1.5941240084813364	-0.00604860131877183	0.5184904486185107	1.5869952754138001	0.21729728359942624	-0.0872174975456531	1.7023754290574198	0.1939911948449759	-0.06808947876447013	1.749752158874426	0.2905692802705981	0.1038049895488751	1.8314688029049733	0.3199334972788099	0.3293627004812069	1.927595621138155	0.2537295721018835	0.3242813752407973	1.9058811612304514	0.045858715748058186	0.521680774862122	1.8199137734834996	0.1733843906952259
304	5.066666666666666	-0.056601348767609014	1.6729758034931388	0.17225110342845715	-0.08258967593415356	1.6402601980039386	0.1911640460614091	-0.05458897784047248	1.5829949665597247	0.28991064472235906	0.11049559000293689	1.5035402173534644	0.2756553816011409	0.30274696420439756	1.4776889870700032	0.12493846378057266	0.16787616911229927	1.5967614306113342	-0.019731202247735672	0.5164753476376025	1.592034579408575	0.21851012803630018	-0.08735519935221278	1.7001909610850023	0.19381875467526577	-0.06715933603424168	1.7500316768430524	0.2958333119421128	0.10296668668632754	1.8343139493605158	0.3183935673242532	0.3301090596602892	1.925720976959138	0.25445943358558487	0.32287872303550863	1.9026946040087684	0.04249326563312745	0.5244032795979391	1.820337513948786	0.17759443101305916
305	5.083333333333333	-0.059534800233437546	1.6740055969234946	0.1695090679284311	-0.08187215673557428	1.6386575097827514	0.19316571084597592	-0.05405229338616872	1.584660122248629	0.2922746731891405	0.1102357667134823	1.5048844330827897	0.27526846304338076	0.2999666529854601	1.4803882707205887	0.12612045854933612	0.1759771530460429	1.5956058420898207	-0.01823711353260799	0.5136627661624058	1.5860501174407997	0.2178296793390391	-0.08829315091136014	1.70060019264929	0.19471646352382002	-0.06814209099016194	1.7510598087966174	0.29353722264304916	0.10248470878777384	1.8355248011371275	0.3156149405277755	0.3306094199265741	1.9255421576973575	0.2659770257923556	0.3234821285345003	1.9040647831030812	0.04040846373999913	0.5334972945211626	1.8177967279539669	0.17839540419966987
306	5.1	-0.0597954831835505	1.677058119838359	0.17163056398142482	-0.08175034327058492	1.6403304545160586	0.19511136360262754	-0.056198374103859146	1.5864754973555837	0.29028353545258284	0.10955390781965982	1.505275606390017	0.2752382929326496	0.30283065902723383	1.4814822682426523	0.12575461546726563	0.18350186289160716	1.5955566750266423	-0.028725844353269143	0.5164140213645105	1.5867173527759975	0.20923093170277923	-0.08833520778214264	1.701388103158064	0.19344577300810964	-0.0668845166514509	1.7504234997366621	0.2954589936378708	0.1032027668183593	1.8354476997406937	0.3148942510711584	0.32860507125546246	1.9280515881883695	0.262768970036551	0.3189989578945059	1.9034391516128175	0.03877806824869469	0.538710778842631	1.819464570540223	0.17255913524667485
307	5.116666666666666	-0.05758367603273863	1.6750883310629103	0.17016862599693444	-0.08277143466947019	1.641140536579286	0.1935935704181993	-0.05685415659287466	1.582553233466851	0.29012200061991195	0.11102810261055705	1.5038821506782383	0.27737002554978996	0.29970014625862473	1.4821089143983885	0.1235688250524372	0.18575395223163502	1.601067468307765	-0.03405792473715612	0.5231707958964088	1.5880111710263183	0.2142054205140973	-0.08796915555996929	1.7020298372174008	0.1917669564246137	-0.06759785317341278	1.750865697277191	0.2938659189822424	0.10304227890253335	1.8363152005174173	0.31319437080586887	0.32905279880078325	1.9258016791923813	0.26587378318029364	0.3189492057443562	1.9047121314608726	0.036099926825186195	0.5258606869749932	1.8147662562767533	0.21704002592407362
308	5.133333333333334	-0.060590120272080196	1.6762981206248182	0.17245425902914854	-0.08290517066092135	1.6391498083831038	0.19609130443908945	-0.056626542057879425	1.5816065723463801	0.28417845448274787	0.10957851090967478	1.504581332849935	0.2754745982995366	0.29917453664437127	1.4810055789508236	0.12212882867034239	0.19165976068917476	1.5987981108126728	-0.03510869393374198	0.5196055752401394	1.5856442207092658	0.2105454950152121	-0.08961493607264653	1.7033832751367217	0.19541969080194602	-0.06741021737727368	1.7506004292791748	0.28978469148418684	0.10355288641432775	1.8388441832142488	0.3161063167942815	0.32748595028999133	1.9256479723116138	0.26749595703913726	0.32048476343935833	1.903148008688056	0.03531854747600171	0.5380841825035728	1.8183489204771828	0.17307185579434578
309	5.15	-0.06064335450669954	1.6757635542821232	0.1737320686276423	-0.08482796419429567	1.640537409641336	0.19263608711434185	-0.0585741250486863	1.5859264396595953	0.2866367242606008	0.10936549349327623	1.5044515374830183	0.2742050390567939	0.29733546191571747	1.4851767341649245	0.12078654188511932	0.20124592639330177	1.5996079456512144	-0.04530856674142211	0.5208832682246134	1.58775825485983	0.2065449202494038	-0.08847022776658724	1.7054238037749445	0.19482489277523699	-0.06431198043133886	1.7518124772337555	0.29620703475799626	0.10150395176213314	1.8361665736026043	0.3146812167047499	0.3274701731900767	1.928587245850359	0.2643082798684384	0.322502447811932	1.9015100839137336	0.03594904683383989	0.5430665730560619	1.821834120321948	0.17808942848466833
